# xmcd
#
# Track frame offsets: 
#        150
#        15538
#        30828
#        44391
#        59661
#        71745
#        89745
#        105492
#        119016
#        136512
#        151786
#
# Disc length: 2253 seconds
#
# Revision: 1
# Processed by: cddbd v1.5.2PL0 Copyright (c) Steve Scherf et al.
# Submitted via: ExactAudioCopyFreeDBPlugin 1.0
#
DISCID=8b08cb0b
DTITLE=Jeans - Por Que Soy Libre
DYEAR=2006
DGENRE=Pop
TTITLE0=Tu Cancion Feliz
TTITLE1=Tu Falso Amor
TTITLE2=Me volvi a equivocar
TTITLE3=La Mujer Maravilla
TTITLE4=Simplemente Amigos
TTITLE5=Te Encontre
TTITLE6=La De Las Ranas
TTITLE7=Hello
TTITLE8=Yo no Te Pido La Luna
TTITLE9=Desesperadamente
TTITLE10=Somos
EXTD=
EXTT0=
EXTT1=
EXTT2=
EXTT3=
EXTT4=
EXTT5=
EXTT6=
EXTT7=
EXTT8=
EXTT9=
EXTT10=
PLAYORDER=
